<svg width="148" height="45" viewBox="0 0 148 45" fill="none" xmlns="http://www.w3.org/2000/svg">
<path d="M46.1544 32.5745H47.6716V42.7007H53.7101V43.9789H46.1544V32.5745Z" fill="#B8B4B1"/>
<path d="M56.7911 32.5745H64.6648V33.8526H58.3083V37.4786H64.2334V38.7567H58.3083V42.7027H64.7134V43.9809H56.7911V32.5745Z" fill="#B8B4B1"/>
<path d="M76.8349 42.5589C75.9558 43.756 74.5196 44.2523 73.1766 44.2523C69.7735 44.2523 67.7459 41.4731 67.7459 38.5015C67.7459 35.1794 69.5669 32.303 73.1766 32.303C75.6682 32.303 77.6493 33.4212 78.0807 36.089H76.5635C76.2597 34.3631 74.8701 33.5812 73.1766 33.5812C70.4136 33.5812 69.2631 35.9776 69.2631 38.4205C69.2631 40.8634 70.6365 42.9721 73.1766 42.9721C75.5244 42.9721 76.9302 41.3273 76.8349 39.251H73.1928V37.9728H78.1921V43.9789H77.234L76.8349 42.5569V42.5589Z" fill="#B8B4B1"/>
<path d="M85.2839 32.5745H86.9611L91.4176 43.9789H89.7403L88.4946 40.5454H83.6715L82.3933 43.9789H80.8275L85.2839 32.5745ZM84.1495 39.2672H88.0145L86.1144 33.9478H86.082L84.1495 39.2672Z" fill="#B8B4B1"/>
<path d="M94.292 32.5745H95.8092V42.7007H101.848V43.9789H94.292V32.5745Z" fill="#B8B4B1"/>
<path fill-rule="evenodd" clip-rule="evenodd" d="M86.0921 12.8791V28.3753H81.5547L81.2265 24.5326C77.7221 29.8257 69.8363 30.0748 64.6121 27.1457C71.0557 26.9472 77.398 23.9027 79.7133 18.1154H71.4953V12.8811H86.0921V12.8791Z" fill="#B8B4B1"/>
<path fill-rule="evenodd" clip-rule="evenodd" d="M61.5656 24.8223L61.5615 24.8183C58.8087 22.0654 57.4332 18.7393 57.4332 14.8419C57.4332 10.5091 58.837 6.95203 61.6446 4.17081C64.4785 1.39162 67.9808 0 72.1516 0C75.3947 0 78.2833 0.899388 80.8194 2.69816C83.3271 4.44225 84.976 6.97836 85.766 10.3025H79.4703C78.3805 7.16877 75.9679 5.60092 72.2326 5.60092C69.6155 5.60092 67.4906 6.43144 65.8539 8.09449C64.2192 9.75755 63.4008 11.9918 63.4008 14.7994C63.4008 17.1694 64.1928 19.187 65.7728 20.85C67.205 22.3065 69.0179 23.1147 71.2077 23.2727C69.101 24.1923 66.7573 24.6603 64.5392 24.7271L61.5676 24.8183L61.5656 24.8223Z" fill="#002B58"/>
<path d="M0 0.660364H6.69882V23.2362H21.5468V28.3571H0V0.660364Z" fill="#002B58"/>
<path d="M39.1132 0C48.5426 0 54.0889 6.40105 54.0889 14.6232C54.0889 22.8453 48.5426 29.0134 39.1132 29.0134C29.6838 29.0134 24.1356 22.6123 24.1356 14.6232C24.1356 6.634 29.6838 0 39.1132 0ZM39.1132 23.8946C45.1294 23.8946 47.39 19.2396 47.39 14.6232C47.39 9.77376 45.1294 5.11882 39.1132 5.11882C33.0971 5.11882 30.8344 9.77376 30.8344 14.6232C30.8344 19.4726 33.095 23.8946 39.1132 23.8946Z" fill="#002B58"/>
<path d="M104.578 0C114.008 0 119.554 6.40105 119.554 14.6232C119.554 22.8453 114.008 29.0134 104.578 29.0134C95.1488 29.0134 89.6006 22.6123 89.6006 14.6232C89.6006 6.634 95.1488 0 104.578 0ZM104.578 23.8946C110.594 23.8946 112.855 19.2396 112.855 14.6232C112.855 9.77376 110.594 5.11882 104.578 5.11882C98.562 5.11882 96.2994 9.77376 96.2994 14.6232C96.2994 19.4726 98.56 23.8946 104.578 23.8946Z" fill="#002B58"/>
<path d="M128.843 19.1626C128.843 22.8473 132.001 24.2835 135.585 24.2835C137.93 24.2835 141.516 23.6636 141.516 20.8318C141.516 17.846 136.95 17.3396 132.469 16.2538C127.946 15.1681 123.38 13.5779 123.38 8.38011C123.38 2.7164 129.269 0.00202763 134.773 0.00202763C141.131 0.00202763 146.975 2.52396 146.975 8.92299H140.489C140.276 5.58674 137.673 4.73394 134.473 4.73394C132.34 4.73394 129.864 5.54826 129.864 7.87573C129.864 10.0087 131.315 10.2802 138.953 12.0648C141.172 12.5692 148 13.8494 148 20.1329C148 25.2153 143.604 29.0154 135.328 29.0154C128.586 29.0154 122.272 25.9891 122.357 19.1626H128.843Z" fill="#002B58"/>
</svg>
