<svg width="80" height="80" viewBox="0 0 80 80" fill="none" xmlns="http://www.w3.org/2000/svg">
<rect x="1" y="1" width="78" height="78" rx="9" stroke="#087AEC" stroke-width="2"/>
<path d="M30.6666 63.3333H49.3333C58.7133 63.3333 60.3933 59.5767 60.8833 55.0033L62.6333 36.3367C63.2633 30.6433 61.6299 26 51.6666 26H28.3333C18.3699 26 16.7366 30.6433 17.3666 36.3367L19.1166 55.0033C19.6066 59.5767 21.2866 63.3333 30.6666 63.3333Z" stroke="#087AEC" stroke-width="2" stroke-miterlimit="10" stroke-linecap="round" stroke-linejoin="round"/>
<path d="M30.6665 26.0001V24.1334C30.6665 20.0034 30.6665 16.6667 38.1332 16.6667H41.8665C49.3332 16.6667 49.3332 20.0034 49.3332 24.1334V26.0001" stroke="#087AEC" stroke-width="2" stroke-miterlimit="10" stroke-linecap="round" stroke-linejoin="round"/>
<path d="M44.6668 42.3333V44.6667C44.6668 44.69 44.6668 44.69 44.6668 44.7133C44.6668 47.2567 44.6435 49.3333 40.0002 49.3333C35.3802 49.3333 35.3335 47.28 35.3335 44.7367V42.3333C35.3335 40 35.3335 40 37.6668 40H42.3335C44.6668 40 44.6668 40 44.6668 42.3333Z" stroke="#087AEC" stroke-width="2" stroke-miterlimit="10" stroke-linecap="round" stroke-linejoin="round"/>
<path d="M62.5165 37.6667C57.1265 41.5867 50.9665 43.9201 44.6665 44.7134" stroke="#087AEC" stroke-width="2" stroke-miterlimit="10" stroke-linecap="round" stroke-linejoin="round"/>
<path d="M18.1133 38.2966C23.3633 41.89 29.2899 44.06 35.3333 44.7366" stroke="#087AEC" stroke-width="2" stroke-miterlimit="10" stroke-linecap="round" stroke-linejoin="round"/>
</svg>
