<svg width="80" height="80" viewBox="0 0 80 80" fill="none" xmlns="http://www.w3.org/2000/svg">
<rect x="1" y="1" width="78" height="78" rx="9" stroke="#087AEC" stroke-width="2"/>
<path d="M64.4055 41.2845L57.276 23.4695C57.1601 23.1745 56.9427 22.9306 56.6629 22.7818C56.3831 22.6329 56.0594 22.5888 55.75 22.6575L41.337 25.86V20.4C41.337 20.0454 41.1961 19.7053 40.9454 19.4546C40.6947 19.2039 40.3546 19.063 40 19.063C39.6454 19.063 39.3053 19.2039 39.0546 19.4546C38.8039 19.7053 38.663 20.0454 38.663 20.4V26.455L23.6725 29.7975C23.4608 29.8442 23.2636 29.9419 23.0983 30.0823C22.933 30.2226 22.8045 30.4012 22.724 30.6025L15.5945 48.4245C15.5347 48.5786 15.5027 48.7422 15.5 48.9075C15.5 53.776 20.6905 55.5925 23.963 55.5925C27.2355 55.5925 32.426 53.776 32.426 48.9075C32.4249 48.7375 32.3929 48.569 32.3315 48.4105L25.7865 32.055L38.6665 29.192V58.263H34.652C34.2974 58.263 33.9573 58.4039 33.7066 58.6546C33.4559 58.9053 33.315 59.2454 33.315 59.6C33.315 59.9546 33.4559 60.2947 33.7066 60.5454C33.9573 60.7961 34.2974 60.937 34.652 60.937H45.341C45.6956 60.937 46.0357 60.7961 46.2864 60.5454C46.5371 60.2947 46.678 59.9546 46.678 59.6C46.678 59.2454 46.5371 58.9053 46.2864 58.6546C46.0357 58.4039 45.6956 58.263 45.341 58.263H41.337V28.597L53.8565 25.818L47.6685 41.288C47.6075 41.4454 47.5755 41.6126 47.574 41.7815C47.574 46.65 52.7645 48.4665 56.037 48.4665C59.3095 48.4665 64.5 46.65 64.5 41.778C64.4989 41.608 64.4669 41.443 64.4055 41.2845ZM23.963 52.9185C22.6017 52.9075 21.2643 52.5587 20.071 51.9035C18.874 51.2035 18.2545 50.304 18.181 49.1455L23.97 34.6905L29.7625 49.1455C29.5455 52.215 25.4295 52.9185 23.963 52.9185ZM56.037 45.789C54.6745 45.7785 53.3359 45.4298 52.1415 44.774C50.948 44.0775 50.3285 43.1745 50.2515 42.0195L56.044 27.5645L61.833 42.0195C61.6195 45.089 57.5035 45.789 56.037 45.789Z" fill="#087AEC"/>
</svg>
