<svg width="80" height="80" viewBox="0 0 80 80" fill="none" xmlns="http://www.w3.org/2000/svg">
<rect x="1" y="1" width="78" height="78" rx="9" stroke="#087AEC" stroke-width="2"/>
<path d="M62.4 35.8001H40.4666V44.4334H53.3C53.0666 46.5334 51.6666 49.8001 48.6333 51.9001C46.7666 53.3001 43.9666 54.2334 40.4666 54.2334C34.4 54.2334 29.0333 50.2667 27.1666 44.4334C26.7 43.0334 26.4666 41.4001 26.4666 39.7667C26.4666 38.1334 26.7 36.5001 27.1666 35.1001C27.4 34.6334 27.4 34.1667 27.6333 33.9334C29.7333 29.0334 34.6333 25.5334 40.4666 25.5334C44.9 25.5334 47.7 27.4001 49.5666 29.0334L56.1 22.5001C52.1333 19.0001 46.7666 16.6667 40.4666 16.6667C31.3666 16.6667 23.4333 21.8001 19.7 29.5001C18.0666 32.7667 17.1333 36.2667 17.1333 40.0001C17.1333 43.7334 18.0666 47.2334 19.7 50.5001C23.4333 58.2001 31.3666 63.3334 40.4666 63.3334C46.7666 63.3334 52.1333 61.2334 55.8666 57.7334C60.3 53.7668 62.8666 47.7001 62.8666 40.4667C62.8666 38.6001 62.6333 37.2001 62.4 35.8001Z" stroke="#087AEC" stroke-width="2" stroke-miterlimit="10" stroke-linecap="round" stroke-linejoin="round"/>
</svg>
