<svg width="80" height="80" viewBox="0 0 80 80" fill="none" xmlns="http://www.w3.org/2000/svg">
<rect x="1" y="1" width="78" height="78" rx="9" stroke="#087AEC" stroke-width="2"/>
<path d="M39.9999 63.3334C43.0646 63.3372 46.0999 62.7354 48.9313 61.5625C51.7627 60.3897 54.3345 58.6689 56.4989 56.4991C58.6687 54.3347 60.3894 51.763 61.5623 48.9315C62.7351 46.1001 63.337 43.0648 63.3332 40.0001C63.337 36.9354 62.7351 33.9001 61.5623 31.0687C60.3894 28.2372 58.6687 25.6655 56.4989 23.5011C54.3345 21.3313 51.7627 19.6105 48.9313 18.4377C46.0999 17.2648 43.0646 16.663 39.9999 16.6668C36.9351 16.663 33.8999 17.2648 31.0684 18.4377C28.237 19.6105 25.6652 21.3313 23.5009 23.5011C21.331 25.6655 19.6103 28.2372 18.4374 31.0687C17.2646 33.9001 16.6627 36.9354 16.6665 40.0001C16.6627 43.0648 17.2646 46.1001 18.4374 48.9315C19.6103 51.763 21.331 54.3347 23.5009 56.4991C25.6652 58.6689 28.237 60.3897 31.0684 61.5625C33.8999 62.7354 36.9351 63.3372 39.9999 63.3334Z" stroke="#087AEC" stroke-width="2" stroke-linejoin="round"/>
<path d="M30.6665 40L37.6665 47L51.6665 33" stroke="#087AEC" stroke-width="2" stroke-linecap="round" stroke-linejoin="round"/>
</svg>
