<svg width="56" height="56" viewBox="0 0 56 56" fill="none" xmlns="http://www.w3.org/2000/svg">
<path d="M5.48432 30.8325C4.66066 25.4705 4.24766 22.7918 5.26266 20.4142C6.27532 18.0388 8.52466 16.4125 13.021 13.1622L16.381 10.7332C21.974 6.6895 24.7717 4.6665 27.9987 4.6665C31.2257 4.6665 34.0233 6.6895 39.6163 10.7332L42.9763 13.1622C47.4727 16.4125 49.7197 18.0388 50.7347 20.4142C51.7473 22.7918 51.3367 25.4705 50.513 30.8302L49.8107 35.4035C48.644 43.0008 48.0583 46.7995 45.333 49.0675C42.6077 51.3355 38.6247 51.3332 30.6563 51.3332H25.3387C17.3703 51.3332 13.3873 51.3332 10.662 49.0675C7.93666 46.7995 7.35332 43.0008 6.18432 35.4012L5.48432 30.8325Z" stroke="#087AEC" stroke-width="1.5" stroke-linecap="round" stroke-linejoin="round"/>
<path d="M26.25 30.9165C29.0197 33.6862 32.6667 36.5002 32.6667 36.5002L37.667 31.4998C37.667 31.4998 34.853 27.8528 32.0833 25.0832C29.3137 22.3135 25.6667 19.4995 25.6667 19.4995L20.6663 24.4998C20.6663 24.4998 23.4803 28.1468 26.25 30.9165ZM26.25 30.9165L17.5 39.6665M38.5 30.6668L31.8337 37.3332M26.4997 18.6665L19.8333 25.3328" stroke="#087AEC" stroke-width="1.5" stroke-linecap="round" stroke-linejoin="round"/>
</svg>
