<svg width="56" height="56" viewBox="0 0 56 56" fill="none" xmlns="http://www.w3.org/2000/svg">
<path d="M28 49C39.598 49 49 39.598 49 28C49 16.402 39.598 7 28 7C16.402 7 7 16.402 7 28C7 39.598 16.402 49 28 49Z" stroke="#087AEC" stroke-width="2"/>
<path d="M30.3662 26.8467L30.3615 26.8583L30.3554 26.8783L30.3385 26.93L30.3338 26.95L30.3169 27.0367L30.3108 27.0867C30.3087 27.1133 30.3077 27.1406 30.3077 27.1683C30.3077 29.465 32.0338 31.335 34.1538 31.335C36.2738 31.335 38 29.465 38 27.1683L37.9969 27.0867L37.9908 27.0367L37.9862 27.0083L37.9738 26.95L37.9692 26.93L37.9523 26.8783L37.9462 26.8583L37.9415 26.8467V26.8417L35.2923 19.6667H36.4631C36.6671 19.6667 36.8627 19.5789 37.007 19.4226C37.1513 19.2663 37.2323 19.0543 37.2323 18.8333C37.2323 18.6123 37.1513 18.4004 37.007 18.2441C36.8627 18.0878 36.6671 18 36.4631 18H19.5369C19.3329 18 19.1373 18.0878 18.993 18.2441C18.8487 18.4004 18.7677 18.6123 18.7677 18.8333C18.7677 19.0543 18.8487 19.2663 18.993 19.4226C19.1373 19.5789 19.3329 19.6667 19.5369 19.6667H20.7077L18.0585 26.8417V26.8467L18.0538 26.8583L18.0477 26.8783L18.0308 26.93L18.0262 26.95L18.0092 27.0367L18.0031 27.0867C18.001 27.1133 18 27.1406 18 27.1683C18 29.465 19.7262 31.335 21.8462 31.335C23.9662 31.335 25.6923 29.465 25.6923 27.1683L25.6892 27.0867L25.6831 27.0367L25.6785 27.0083L25.6662 26.95L25.6615 26.93L25.6446 26.8783L25.6385 26.8583L25.6338 26.8467V26.8417L22.9846 19.6667H27.2323V33H23.3862C22.1138 33 21.0785 34.1217 21.0785 35.5C21.0785 36.8783 22.1138 38 23.3862 38H32.6169C33.8892 38 34.9246 36.8783 34.9246 35.5C34.9246 34.1217 33.8892 33 32.6169 33H28.7708V19.6683H33.0185L30.3692 26.8433V26.8483L30.3662 26.8467ZM21.8446 21.0783L23.7862 26.335H19.9046L21.8446 21.0783ZM21.8446 29.6683C21.3675 29.6683 20.902 29.5079 20.5125 29.2095C20.1229 28.911 19.8283 28.489 19.6692 28.0017H24.02C23.7015 28.9717 22.8477 29.6683 21.8446 29.6683ZM33.3831 35.5017C33.3831 35.7227 33.302 35.9346 33.1578 36.0909C33.0135 36.2472 32.8179 36.335 32.6138 36.335H23.3831C23.1791 36.335 22.9834 36.2472 22.8391 36.0909C22.6949 35.9346 22.6138 35.7227 22.6138 35.5017C22.6138 35.2807 22.6949 35.0687 22.8391 34.9124C22.9834 34.7561 23.1791 34.6683 23.3831 34.6683H32.6138C32.8179 34.6683 33.0135 34.7561 33.1578 34.9124C33.302 35.0687 33.3831 35.2807 33.3831 35.5017ZM34.1523 29.6683C33.6751 29.6683 33.2097 29.5079 32.8202 29.2095C32.4306 28.911 32.136 28.489 31.9769 28.0017H36.3277C36.0092 28.9717 35.1554 29.6683 34.1523 29.6683ZM32.2108 26.335L34.1523 21.0783L36.0938 26.335H32.2108Z" fill="#087AEC"/>
</svg>
