<svg width="56" height="56" viewBox="0 0 56 56" fill="none" xmlns="http://www.w3.org/2000/svg">
<path d="M42 44.0065H40.2266C38.36 44.0065 36.5867 44.7299 35.28 46.0365L31.2899 49.9799C29.4699 51.7765 26.5067 51.7765 24.6867 49.9799L20.6967 46.0365C19.39 44.7299 17.5933 44.0065 15.75 44.0065H14C10.1267 44.0065 7 40.9033 7 37.0766V11.6199C7 7.79321 10.1267 4.68994 14 4.68994H42C45.8733 4.68994 49 7.79321 49 11.6199V37.0766C49 40.88 45.8733 44.0065 42 44.0065Z" stroke="#087AEC" stroke-width="1.5" stroke-miterlimit="10" stroke-linecap="round" stroke-linejoin="round"/>
<path d="M28.0031 23.3332C31.0057 23.3332 33.4398 20.8991 33.4398 17.8965C33.4398 14.8939 31.0057 12.46 28.0031 12.46C25.0005 12.46 22.5664 14.8939 22.5664 17.8965C22.5664 20.8991 25.0005 23.3332 28.0031 23.3332Z" stroke="#087AEC" stroke-width="1.5" stroke-linecap="round" stroke-linejoin="round"/>
<path d="M37.3346 36.5397C37.3346 32.3397 33.158 28.9331 28.0013 28.9331C22.8446 28.9331 18.668 32.3397 18.668 36.5397" stroke="#087AEC" stroke-width="1.5" stroke-linecap="round" stroke-linejoin="round"/>
</svg>
