<svg width="56" height="56" viewBox="0 0 56 56" fill="none" xmlns="http://www.w3.org/2000/svg">
<path d="M27.9994 51.3332C31.0641 51.337 34.0994 50.7351 36.9308 49.5623C39.7622 48.3894 42.334 46.6687 44.4984 44.4989C46.6682 42.3345 48.3889 39.7627 49.5618 36.9313C50.7347 34.0999 51.3365 31.0646 51.3327 27.9999C51.3365 24.9351 50.7347 21.8999 49.5618 19.0684C48.3889 16.237 46.6682 13.6652 44.4984 11.5009C42.334 9.33104 39.7622 7.61028 36.9308 6.43742C34.0994 5.26457 31.0641 4.66274 27.9994 4.66652C24.9346 4.66274 21.8994 5.26457 19.0679 6.43742C16.2365 7.61028 13.6647 9.33104 11.5004 11.5009C9.33055 13.6652 7.60979 16.237 6.43693 19.0684C5.26408 21.8999 4.66225 24.9351 4.66603 27.9999C4.66225 31.0646 5.26408 34.0999 6.43693 36.9313C7.60979 39.7627 9.33055 42.3345 11.5004 44.4989C13.6647 46.6687 16.2365 48.3894 19.0679 49.5623C21.8994 50.7351 24.9346 51.337 27.9994 51.3332Z" stroke="#087AEC" stroke-width="3" stroke-linejoin="round"/>
<path d="M18.666 28L25.666 35L39.666 21" stroke="#087AEC" stroke-width="3" stroke-linecap="round" stroke-linejoin="round"/>
</svg>
