<svg width="56" height="56" viewBox="0 0 56 56" fill="none" xmlns="http://www.w3.org/2000/svg">
<path d="M5.48628 30.8325C4.66261 25.4705 4.24961 22.7918 5.26461 20.4142C6.27728 18.0388 8.52661 16.4125 13.0229 13.1622L16.3829 10.7332C21.9759 6.6895 24.7736 4.6665 28.0006 4.6665C31.2276 4.6665 34.0253 6.6895 39.6183 10.7332L42.9783 13.1622C47.4746 16.4125 49.7216 18.0388 50.7366 20.4142C51.7493 22.7918 51.3386 25.4705 50.5149 30.8302L49.8126 35.4035C48.6459 43.0008 48.0603 46.7995 45.3349 49.0675C42.6096 51.3355 38.6266 51.3332 30.6583 51.3332H25.3406C17.3723 51.3332 13.3893 51.3332 10.6639 49.0675C7.93861 46.7995 7.35528 43.0008 6.18628 35.4012L5.48628 30.8325Z" stroke="#087AEC" stroke-width="3" stroke-linecap="round" stroke-linejoin="round"/>
<path d="M26.25 30.9165C29.0197 33.6862 32.6667 36.5002 32.6667 36.5002L37.667 31.4998C37.667 31.4998 34.853 27.8528 32.0833 25.0832C29.3137 22.3135 25.6667 19.4995 25.6667 19.4995L20.6663 24.4998C20.6663 24.4998 23.4803 28.1468 26.25 30.9165ZM26.25 30.9165L17.5 39.6665M38.5 30.6668L31.8337 37.3332M26.4997 18.6665L19.8333 25.3328" stroke="#087AEC" stroke-width="3" stroke-linecap="round" stroke-linejoin="round"/>
</svg>
