<svg width="56" height="56" viewBox="0 0 56 56" fill="none" xmlns="http://www.w3.org/2000/svg">
<path d="M8.16715 18.6666C8.16761 16.4544 8.73992 14.2799 9.82853 12.3541C10.9171 10.4283 12.4851 8.81655 14.3802 7.67535C16.2753 6.53415 18.4333 5.90222 20.6446 5.84087C22.856 5.77953 25.0456 6.29086 27.0011 7.32524C28.9566 8.35962 30.6115 9.88193 31.8052 11.7444C32.9989 13.6069 33.6908 15.7464 33.8139 17.9551C33.937 20.1639 33.4871 22.367 32.5077 24.3506C31.5284 26.3342 30.0529 28.031 28.2245 29.2763C32.162 30.7204 35.5772 33.3099 38.0306 36.7114C40.4841 40.113 41.8634 44.1709 41.9912 48.3629C41.9857 48.8149 41.8058 49.2473 41.4891 49.5698C41.1724 49.8922 40.7433 50.0799 40.2915 50.0934C39.8397 50.107 39.4001 49.9454 39.0646 49.6425C38.7291 49.3396 38.5237 48.9188 38.4912 48.4679C38.3522 43.9213 36.4484 39.6075 33.1832 36.4406C29.918 33.2736 25.548 31.5025 20.9993 31.5025C16.4506 31.5025 12.0806 33.2736 8.81541 36.4406C5.55022 39.6075 3.64643 43.9213 3.50748 48.4679C3.48412 48.9249 3.28273 49.3545 2.94645 49.6648C2.61018 49.975 2.16576 50.1412 1.70842 50.1278C1.25108 50.1144 0.817177 49.9224 0.499679 49.5929C0.18218 49.2635 0.00633585 48.8228 0.00981632 48.3653C0.137103 44.1728 1.51623 40.1144 3.96968 36.7124C6.42314 33.3104 9.83861 30.7206 13.7765 29.2763C12.0477 28.0988 10.6328 26.5167 9.6552 24.6675C8.67756 22.8184 8.16671 20.7583 8.16715 18.6666ZM21.0005 9.33326C18.5251 9.33326 16.1512 10.3166 14.4008 12.0669C12.6505 13.8173 11.6672 16.1912 11.6672 18.6666C11.6672 21.1419 12.6505 23.5159 14.4008 25.2663C16.1512 27.0166 18.5251 27.9999 21.0005 27.9999C23.4758 27.9999 25.8498 27.0166 27.6001 25.2663C29.3505 23.5159 30.3338 21.1419 30.3338 18.6666C30.3338 16.1912 29.3505 13.8173 27.6001 12.0669C25.8498 10.3166 23.4758 9.33326 21.0005 9.33326ZM40.3438 18.6666C40 18.6666 39.6625 18.6899 39.3312 18.7366C39.0998 18.778 38.8625 18.7724 38.6334 18.7201C38.4043 18.6679 38.188 18.57 37.9976 18.4323C37.8071 18.2946 37.6463 18.12 37.5248 17.9189C37.4033 17.7177 37.3235 17.4941 37.2903 17.2615C37.2571 17.0288 37.271 16.7919 37.3314 16.5647C37.3917 16.3376 37.4971 16.1249 37.6414 15.9395C37.7857 15.754 37.9659 15.5994 38.1712 15.4851C38.3766 15.3708 38.6028 15.2989 38.8365 15.2739C41.1572 14.9384 43.5235 15.3841 45.5632 16.5408C47.6028 17.6974 49.2 19.4995 50.1032 21.6634C51.0065 23.8272 51.1646 26.23 50.5527 28.4935C49.9408 30.7571 48.5936 32.7529 46.7232 34.1669C49.4727 35.3981 51.8073 37.3986 53.4452 39.9271C55.0831 42.4556 55.9543 45.404 55.9538 48.4166C55.9538 48.8807 55.7694 49.3258 55.4413 49.654C55.1131 49.9822 54.6679 50.1666 54.2038 50.1666C53.7397 50.1666 53.2946 49.9822 52.9664 49.654C52.6382 49.3258 52.4538 48.8807 52.4538 48.4166C52.4547 45.8127 51.6162 43.2778 50.0627 41.188C48.5092 39.0982 46.3235 37.5648 43.8298 36.8153L42.5838 36.4419V32.5313L43.5405 32.0436C44.9586 31.3253 46.0932 30.15 46.7612 28.7075C47.4292 27.265 47.5916 25.6395 47.2221 24.0934C46.8526 22.5472 45.9729 21.1708 44.7249 20.1861C43.4769 19.2015 41.9335 18.6662 40.3438 18.6666Z" fill="#087AEC"/>
</svg>
