<svg width="49" height="49" viewBox="0 0 49 49" fill="none" xmlns="http://www.w3.org/2000/svg">
<path d="M1.57026 26.916C0.746594 21.554 0.333594 18.8753 1.34859 16.4977C2.36126 14.1223 4.61059 12.496 9.10693 9.24567L12.4669 6.81667C18.0599 2.773 20.8576 0.75 24.0846 0.75C27.3116 0.75 30.1093 2.773 35.7023 6.81667L39.0623 9.24567C43.5586 12.496 45.8056 14.1223 46.8206 16.4977C47.8333 18.8753 47.4226 21.554 46.5989 26.9137L45.8966 31.487C44.7299 39.0843 44.1443 42.883 41.4189 45.151C38.6936 47.419 34.7106 47.4167 26.7423 47.4167H21.4246C13.4563 47.4167 9.47326 47.4167 6.74793 45.151C4.02259 42.883 3.43926 39.0843 2.27026 31.4847L1.57026 26.916Z" stroke="#087AEC" stroke-width="1.5" stroke-linecap="round" stroke-linejoin="round"/>
<path d="M22.3345 27C25.1041 29.7697 28.7511 32.5837 28.7511 32.5837L33.7515 27.5833C33.7515 27.5833 30.9375 23.9363 28.1678 21.1667C25.3981 18.397 21.7511 15.583 21.7511 15.583L16.7508 20.5833C16.7508 20.5833 19.5648 24.2303 22.3345 27ZM22.3345 27L13.5845 35.75M34.5845 26.7503L27.9181 33.4167M22.5841 14.75L15.9178 21.4163" stroke="#087AEC" stroke-width="1.5" stroke-linecap="round" stroke-linejoin="round"/>
</svg>
