<svg width="49" height="49" viewBox="0 0 49 49" fill="none" xmlns="http://www.w3.org/2000/svg">
<path d="M24.3334 47.6667C27.3981 47.6705 30.4334 47.0686 33.2648 45.8958C36.0962 44.7229 38.668 43.0022 40.8323 40.8323C43.0022 38.668 44.7229 36.0962 45.8958 33.2648C47.0686 30.4334 47.6705 27.3981 47.6667 24.3334C47.6705 21.2686 47.0686 18.2334 45.8958 15.4019C44.7229 12.5705 43.0022 9.99872 40.8323 7.83435C38.668 5.66454 36.0962 3.94377 33.2648 2.77092C30.4334 1.59806 27.3981 0.996238 24.3334 1.00002C21.2686 0.996238 18.2334 1.59806 15.4019 2.77092C12.5705 3.94377 9.99872 5.66454 7.83435 7.83435C5.66454 9.99872 3.94377 12.5705 2.77092 15.4019C1.59806 18.2334 0.996238 21.2686 1.00002 24.3334C0.996238 27.3981 1.59806 30.4334 2.77092 33.2648C3.94377 36.0962 5.66454 38.668 7.83435 40.8323C9.99872 43.0022 12.5705 44.7229 15.4019 45.8958C18.2334 47.0686 21.2686 47.6705 24.3334 47.6667Z" stroke="#087AEC" stroke-width="2" stroke-linejoin="round"/>
<path d="M15 24.3335L22 31.3335L36 17.3335" stroke="#087AEC" stroke-width="2" stroke-linecap="round" stroke-linejoin="round"/>
</svg>
